%TF.GenerationSoftware,KiCad,Pcbnew,7.0.6*%
%TF.CreationDate,2025-02-23T16:11:29-08:00*%
%TF.ProjectId,jtag_adapter,6a746167-5f61-4646-9170-7465722e6b69,rev?*%
%TF.SameCoordinates,Original*%
%TF.FileFunction,Drillmap*%
%TF.FilePolarity,Positive*%
%FSLAX45Y45*%
G04 Gerber Fmt 4.5, Leading zero omitted, Abs format (unit mm)*
G04 Created by KiCad (PCBNEW 7.0.6) date 2025-02-23 16:11:29*
%MOMM*%
%LPD*%
G01*
G04 APERTURE LIST*
%ADD10C,0.100000*%
%ADD11C,0.200000*%
%ADD12C,0.065000*%
%ADD13C,0.080000*%
G04 APERTURE END LIST*
D10*
X6897312Y-6939931D02*
X8378722Y-6939931D01*
X8378722Y-8149312D01*
X6897312Y-8149312D01*
X6897312Y-6939931D01*
D11*
D12*
X7905000Y-7252380D02*
X7970000Y-7317380D01*
X7970000Y-7252380D02*
X7905000Y-7317380D01*
X7905000Y-7379380D02*
X7970000Y-7444380D01*
X7970000Y-7379380D02*
X7905000Y-7444380D01*
X7905000Y-7506380D02*
X7970000Y-7571380D01*
X7970000Y-7506380D02*
X7905000Y-7571380D01*
X7905000Y-7633380D02*
X7970000Y-7698380D01*
X7970000Y-7633380D02*
X7905000Y-7698380D01*
X7905000Y-7760380D02*
X7970000Y-7825380D01*
X7970000Y-7760380D02*
X7905000Y-7825380D01*
X8032000Y-7252380D02*
X8097000Y-7317380D01*
X8097000Y-7252380D02*
X8032000Y-7317380D01*
X8032000Y-7379380D02*
X8097000Y-7444380D01*
X8097000Y-7379380D02*
X8032000Y-7444380D01*
X8032000Y-7506380D02*
X8097000Y-7571380D01*
X8097000Y-7506380D02*
X8032000Y-7571380D01*
X8032000Y-7633380D02*
X8097000Y-7698380D01*
X8097000Y-7633380D02*
X8032000Y-7698380D01*
X8032000Y-7760380D02*
X8097000Y-7825380D01*
X8097000Y-7760380D02*
X8032000Y-7825380D01*
D13*
X7152000Y-7147000D02*
G75*
G03*
X7152000Y-7147000I-40000J0D01*
G01*
X7152000Y-7347000D02*
G75*
G03*
X7152000Y-7347000I-40000J0D01*
G01*
X7152000Y-7547000D02*
G75*
G03*
X7152000Y-7547000I-40000J0D01*
G01*
X7152000Y-7747000D02*
G75*
G03*
X7152000Y-7747000I-40000J0D01*
G01*
X7152000Y-7947000D02*
G75*
G03*
X7152000Y-7947000I-40000J0D01*
G01*
X7352000Y-7147000D02*
G75*
G03*
X7352000Y-7147000I-40000J0D01*
G01*
X7352000Y-7347000D02*
G75*
G03*
X7352000Y-7347000I-40000J0D01*
G01*
X7352000Y-7547000D02*
G75*
G03*
X7352000Y-7547000I-40000J0D01*
G01*
X7352000Y-7747000D02*
G75*
G03*
X7352000Y-7747000I-40000J0D01*
G01*
X7352000Y-7947000D02*
G75*
G03*
X7352000Y-7947000I-40000J0D01*
G01*
D11*
X7153089Y-8465796D02*
X7153089Y-8265796D01*
X7153089Y-8265796D02*
X7200708Y-8265796D01*
X7200708Y-8265796D02*
X7229279Y-8275320D01*
X7229279Y-8275320D02*
X7248327Y-8294367D01*
X7248327Y-8294367D02*
X7257851Y-8313415D01*
X7257851Y-8313415D02*
X7267375Y-8351510D01*
X7267375Y-8351510D02*
X7267375Y-8380082D01*
X7267375Y-8380082D02*
X7257851Y-8418177D01*
X7257851Y-8418177D02*
X7248327Y-8437224D01*
X7248327Y-8437224D02*
X7229279Y-8456272D01*
X7229279Y-8456272D02*
X7200708Y-8465796D01*
X7200708Y-8465796D02*
X7153089Y-8465796D01*
X7353089Y-8465796D02*
X7353089Y-8332462D01*
X7353089Y-8370558D02*
X7362613Y-8351510D01*
X7362613Y-8351510D02*
X7372136Y-8341986D01*
X7372136Y-8341986D02*
X7391184Y-8332462D01*
X7391184Y-8332462D02*
X7410232Y-8332462D01*
X7476898Y-8465796D02*
X7476898Y-8332462D01*
X7476898Y-8265796D02*
X7467375Y-8275320D01*
X7467375Y-8275320D02*
X7476898Y-8284843D01*
X7476898Y-8284843D02*
X7486422Y-8275320D01*
X7486422Y-8275320D02*
X7476898Y-8265796D01*
X7476898Y-8265796D02*
X7476898Y-8284843D01*
X7600708Y-8465796D02*
X7581660Y-8456272D01*
X7581660Y-8456272D02*
X7572136Y-8437224D01*
X7572136Y-8437224D02*
X7572136Y-8265796D01*
X7705470Y-8465796D02*
X7686422Y-8456272D01*
X7686422Y-8456272D02*
X7676898Y-8437224D01*
X7676898Y-8437224D02*
X7676898Y-8265796D01*
X7934041Y-8465796D02*
X7934041Y-8265796D01*
X7934041Y-8265796D02*
X8000708Y-8408653D01*
X8000708Y-8408653D02*
X8067375Y-8265796D01*
X8067375Y-8265796D02*
X8067375Y-8465796D01*
X8248327Y-8465796D02*
X8248327Y-8361034D01*
X8248327Y-8361034D02*
X8238803Y-8341986D01*
X8238803Y-8341986D02*
X8219756Y-8332462D01*
X8219756Y-8332462D02*
X8181660Y-8332462D01*
X8181660Y-8332462D02*
X8162613Y-8341986D01*
X8248327Y-8456272D02*
X8229279Y-8465796D01*
X8229279Y-8465796D02*
X8181660Y-8465796D01*
X8181660Y-8465796D02*
X8162613Y-8456272D01*
X8162613Y-8456272D02*
X8153089Y-8437224D01*
X8153089Y-8437224D02*
X8153089Y-8418177D01*
X8153089Y-8418177D02*
X8162613Y-8399129D01*
X8162613Y-8399129D02*
X8181660Y-8389605D01*
X8181660Y-8389605D02*
X8229279Y-8389605D01*
X8229279Y-8389605D02*
X8248327Y-8380082D01*
X8343565Y-8332462D02*
X8343565Y-8532463D01*
X8343565Y-8341986D02*
X8362613Y-8332462D01*
X8362613Y-8332462D02*
X8400708Y-8332462D01*
X8400708Y-8332462D02*
X8419756Y-8341986D01*
X8419756Y-8341986D02*
X8429279Y-8351510D01*
X8429279Y-8351510D02*
X8438803Y-8370558D01*
X8438803Y-8370558D02*
X8438803Y-8427701D01*
X8438803Y-8427701D02*
X8429279Y-8446748D01*
X8429279Y-8446748D02*
X8419756Y-8456272D01*
X8419756Y-8456272D02*
X8400708Y-8465796D01*
X8400708Y-8465796D02*
X8362613Y-8465796D01*
X8362613Y-8465796D02*
X8343565Y-8456272D01*
X8524518Y-8446748D02*
X8534041Y-8456272D01*
X8534041Y-8456272D02*
X8524518Y-8465796D01*
X8524518Y-8465796D02*
X8514994Y-8456272D01*
X8514994Y-8456272D02*
X8524518Y-8446748D01*
X8524518Y-8446748D02*
X8524518Y-8465796D01*
X8524518Y-8341986D02*
X8534041Y-8351510D01*
X8534041Y-8351510D02*
X8524518Y-8361034D01*
X8524518Y-8361034D02*
X8514994Y-8351510D01*
X8514994Y-8351510D02*
X8524518Y-8341986D01*
X8524518Y-8341986D02*
X8524518Y-8361034D01*
D12*
X6827312Y-8761812D02*
X6892312Y-8826812D01*
X6892312Y-8761812D02*
X6827312Y-8826812D01*
D11*
X7191184Y-8685796D02*
X7210232Y-8685796D01*
X7210232Y-8685796D02*
X7229279Y-8695320D01*
X7229279Y-8695320D02*
X7238803Y-8704844D01*
X7238803Y-8704844D02*
X7248327Y-8723891D01*
X7248327Y-8723891D02*
X7257851Y-8761986D01*
X7257851Y-8761986D02*
X7257851Y-8809605D01*
X7257851Y-8809605D02*
X7248327Y-8847701D01*
X7248327Y-8847701D02*
X7238803Y-8866748D01*
X7238803Y-8866748D02*
X7229279Y-8876272D01*
X7229279Y-8876272D02*
X7210232Y-8885796D01*
X7210232Y-8885796D02*
X7191184Y-8885796D01*
X7191184Y-8885796D02*
X7172136Y-8876272D01*
X7172136Y-8876272D02*
X7162613Y-8866748D01*
X7162613Y-8866748D02*
X7153089Y-8847701D01*
X7153089Y-8847701D02*
X7143565Y-8809605D01*
X7143565Y-8809605D02*
X7143565Y-8761986D01*
X7143565Y-8761986D02*
X7153089Y-8723891D01*
X7153089Y-8723891D02*
X7162613Y-8704844D01*
X7162613Y-8704844D02*
X7172136Y-8695320D01*
X7172136Y-8695320D02*
X7191184Y-8685796D01*
X7343565Y-8866748D02*
X7353089Y-8876272D01*
X7353089Y-8876272D02*
X7343565Y-8885796D01*
X7343565Y-8885796D02*
X7334041Y-8876272D01*
X7334041Y-8876272D02*
X7343565Y-8866748D01*
X7343565Y-8866748D02*
X7343565Y-8885796D01*
X7524517Y-8685796D02*
X7486422Y-8685796D01*
X7486422Y-8685796D02*
X7467375Y-8695320D01*
X7467375Y-8695320D02*
X7457851Y-8704844D01*
X7457851Y-8704844D02*
X7438803Y-8733415D01*
X7438803Y-8733415D02*
X7429279Y-8771510D01*
X7429279Y-8771510D02*
X7429279Y-8847701D01*
X7429279Y-8847701D02*
X7438803Y-8866748D01*
X7438803Y-8866748D02*
X7448327Y-8876272D01*
X7448327Y-8876272D02*
X7467375Y-8885796D01*
X7467375Y-8885796D02*
X7505470Y-8885796D01*
X7505470Y-8885796D02*
X7524517Y-8876272D01*
X7524517Y-8876272D02*
X7534041Y-8866748D01*
X7534041Y-8866748D02*
X7543565Y-8847701D01*
X7543565Y-8847701D02*
X7543565Y-8800082D01*
X7543565Y-8800082D02*
X7534041Y-8781034D01*
X7534041Y-8781034D02*
X7524517Y-8771510D01*
X7524517Y-8771510D02*
X7505470Y-8761986D01*
X7505470Y-8761986D02*
X7467375Y-8761986D01*
X7467375Y-8761986D02*
X7448327Y-8771510D01*
X7448327Y-8771510D02*
X7438803Y-8781034D01*
X7438803Y-8781034D02*
X7429279Y-8800082D01*
X7724517Y-8685796D02*
X7629279Y-8685796D01*
X7629279Y-8685796D02*
X7619756Y-8781034D01*
X7619756Y-8781034D02*
X7629279Y-8771510D01*
X7629279Y-8771510D02*
X7648327Y-8761986D01*
X7648327Y-8761986D02*
X7695946Y-8761986D01*
X7695946Y-8761986D02*
X7714994Y-8771510D01*
X7714994Y-8771510D02*
X7724517Y-8781034D01*
X7724517Y-8781034D02*
X7734041Y-8800082D01*
X7734041Y-8800082D02*
X7734041Y-8847701D01*
X7734041Y-8847701D02*
X7724517Y-8866748D01*
X7724517Y-8866748D02*
X7714994Y-8876272D01*
X7714994Y-8876272D02*
X7695946Y-8885796D01*
X7695946Y-8885796D02*
X7648327Y-8885796D01*
X7648327Y-8885796D02*
X7629279Y-8876272D01*
X7629279Y-8876272D02*
X7619756Y-8866748D01*
X7857851Y-8685796D02*
X7876898Y-8685796D01*
X7876898Y-8685796D02*
X7895946Y-8695320D01*
X7895946Y-8695320D02*
X7905470Y-8704844D01*
X7905470Y-8704844D02*
X7914994Y-8723891D01*
X7914994Y-8723891D02*
X7924517Y-8761986D01*
X7924517Y-8761986D02*
X7924517Y-8809605D01*
X7924517Y-8809605D02*
X7914994Y-8847701D01*
X7914994Y-8847701D02*
X7905470Y-8866748D01*
X7905470Y-8866748D02*
X7895946Y-8876272D01*
X7895946Y-8876272D02*
X7876898Y-8885796D01*
X7876898Y-8885796D02*
X7857851Y-8885796D01*
X7857851Y-8885796D02*
X7838803Y-8876272D01*
X7838803Y-8876272D02*
X7829279Y-8866748D01*
X7829279Y-8866748D02*
X7819756Y-8847701D01*
X7819756Y-8847701D02*
X7810232Y-8809605D01*
X7810232Y-8809605D02*
X7810232Y-8761986D01*
X7810232Y-8761986D02*
X7819756Y-8723891D01*
X7819756Y-8723891D02*
X7829279Y-8704844D01*
X7829279Y-8704844D02*
X7838803Y-8695320D01*
X7838803Y-8695320D02*
X7857851Y-8685796D01*
X8010232Y-8885796D02*
X8010232Y-8752463D01*
X8010232Y-8771510D02*
X8019756Y-8761986D01*
X8019756Y-8761986D02*
X8038803Y-8752463D01*
X8038803Y-8752463D02*
X8067375Y-8752463D01*
X8067375Y-8752463D02*
X8086422Y-8761986D01*
X8086422Y-8761986D02*
X8095946Y-8781034D01*
X8095946Y-8781034D02*
X8095946Y-8885796D01*
X8095946Y-8781034D02*
X8105470Y-8761986D01*
X8105470Y-8761986D02*
X8124517Y-8752463D01*
X8124517Y-8752463D02*
X8153089Y-8752463D01*
X8153089Y-8752463D02*
X8172137Y-8761986D01*
X8172137Y-8761986D02*
X8181660Y-8781034D01*
X8181660Y-8781034D02*
X8181660Y-8885796D01*
X8276898Y-8885796D02*
X8276898Y-8752463D01*
X8276898Y-8771510D02*
X8286422Y-8761986D01*
X8286422Y-8761986D02*
X8305470Y-8752463D01*
X8305470Y-8752463D02*
X8334041Y-8752463D01*
X8334041Y-8752463D02*
X8353089Y-8761986D01*
X8353089Y-8761986D02*
X8362613Y-8781034D01*
X8362613Y-8781034D02*
X8362613Y-8885796D01*
X8362613Y-8781034D02*
X8372137Y-8761986D01*
X8372137Y-8761986D02*
X8391184Y-8752463D01*
X8391184Y-8752463D02*
X8419756Y-8752463D01*
X8419756Y-8752463D02*
X8438803Y-8761986D01*
X8438803Y-8761986D02*
X8448327Y-8781034D01*
X8448327Y-8781034D02*
X8448327Y-8885796D01*
X8838803Y-8676272D02*
X8667375Y-8933415D01*
X9095946Y-8685796D02*
X9114994Y-8685796D01*
X9114994Y-8685796D02*
X9134042Y-8695320D01*
X9134042Y-8695320D02*
X9143565Y-8704844D01*
X9143565Y-8704844D02*
X9153089Y-8723891D01*
X9153089Y-8723891D02*
X9162613Y-8761986D01*
X9162613Y-8761986D02*
X9162613Y-8809605D01*
X9162613Y-8809605D02*
X9153089Y-8847701D01*
X9153089Y-8847701D02*
X9143565Y-8866748D01*
X9143565Y-8866748D02*
X9134042Y-8876272D01*
X9134042Y-8876272D02*
X9114994Y-8885796D01*
X9114994Y-8885796D02*
X9095946Y-8885796D01*
X9095946Y-8885796D02*
X9076899Y-8876272D01*
X9076899Y-8876272D02*
X9067375Y-8866748D01*
X9067375Y-8866748D02*
X9057851Y-8847701D01*
X9057851Y-8847701D02*
X9048327Y-8809605D01*
X9048327Y-8809605D02*
X9048327Y-8761986D01*
X9048327Y-8761986D02*
X9057851Y-8723891D01*
X9057851Y-8723891D02*
X9067375Y-8704844D01*
X9067375Y-8704844D02*
X9076899Y-8695320D01*
X9076899Y-8695320D02*
X9095946Y-8685796D01*
X9248327Y-8866748D02*
X9257851Y-8876272D01*
X9257851Y-8876272D02*
X9248327Y-8885796D01*
X9248327Y-8885796D02*
X9238803Y-8876272D01*
X9238803Y-8876272D02*
X9248327Y-8866748D01*
X9248327Y-8866748D02*
X9248327Y-8885796D01*
X9381661Y-8685796D02*
X9400708Y-8685796D01*
X9400708Y-8685796D02*
X9419756Y-8695320D01*
X9419756Y-8695320D02*
X9429280Y-8704844D01*
X9429280Y-8704844D02*
X9438803Y-8723891D01*
X9438803Y-8723891D02*
X9448327Y-8761986D01*
X9448327Y-8761986D02*
X9448327Y-8809605D01*
X9448327Y-8809605D02*
X9438803Y-8847701D01*
X9438803Y-8847701D02*
X9429280Y-8866748D01*
X9429280Y-8866748D02*
X9419756Y-8876272D01*
X9419756Y-8876272D02*
X9400708Y-8885796D01*
X9400708Y-8885796D02*
X9381661Y-8885796D01*
X9381661Y-8885796D02*
X9362613Y-8876272D01*
X9362613Y-8876272D02*
X9353089Y-8866748D01*
X9353089Y-8866748D02*
X9343565Y-8847701D01*
X9343565Y-8847701D02*
X9334042Y-8809605D01*
X9334042Y-8809605D02*
X9334042Y-8761986D01*
X9334042Y-8761986D02*
X9343565Y-8723891D01*
X9343565Y-8723891D02*
X9353089Y-8704844D01*
X9353089Y-8704844D02*
X9362613Y-8695320D01*
X9362613Y-8695320D02*
X9381661Y-8685796D01*
X9524518Y-8704844D02*
X9534042Y-8695320D01*
X9534042Y-8695320D02*
X9553089Y-8685796D01*
X9553089Y-8685796D02*
X9600708Y-8685796D01*
X9600708Y-8685796D02*
X9619756Y-8695320D01*
X9619756Y-8695320D02*
X9629280Y-8704844D01*
X9629280Y-8704844D02*
X9638803Y-8723891D01*
X9638803Y-8723891D02*
X9638803Y-8742939D01*
X9638803Y-8742939D02*
X9629280Y-8771510D01*
X9629280Y-8771510D02*
X9514994Y-8885796D01*
X9514994Y-8885796D02*
X9638803Y-8885796D01*
X9819756Y-8685796D02*
X9724518Y-8685796D01*
X9724518Y-8685796D02*
X9714994Y-8781034D01*
X9714994Y-8781034D02*
X9724518Y-8771510D01*
X9724518Y-8771510D02*
X9743565Y-8761986D01*
X9743565Y-8761986D02*
X9791184Y-8761986D01*
X9791184Y-8761986D02*
X9810232Y-8771510D01*
X9810232Y-8771510D02*
X9819756Y-8781034D01*
X9819756Y-8781034D02*
X9829280Y-8800082D01*
X9829280Y-8800082D02*
X9829280Y-8847701D01*
X9829280Y-8847701D02*
X9819756Y-8866748D01*
X9819756Y-8866748D02*
X9810232Y-8876272D01*
X9810232Y-8876272D02*
X9791184Y-8885796D01*
X9791184Y-8885796D02*
X9743565Y-8885796D01*
X9743565Y-8885796D02*
X9724518Y-8876272D01*
X9724518Y-8876272D02*
X9714994Y-8866748D01*
X10000708Y-8685796D02*
X9962613Y-8685796D01*
X9962613Y-8685796D02*
X9943565Y-8695320D01*
X9943565Y-8695320D02*
X9934042Y-8704844D01*
X9934042Y-8704844D02*
X9914994Y-8733415D01*
X9914994Y-8733415D02*
X9905470Y-8771510D01*
X9905470Y-8771510D02*
X9905470Y-8847701D01*
X9905470Y-8847701D02*
X9914994Y-8866748D01*
X9914994Y-8866748D02*
X9924518Y-8876272D01*
X9924518Y-8876272D02*
X9943565Y-8885796D01*
X9943565Y-8885796D02*
X9981661Y-8885796D01*
X9981661Y-8885796D02*
X10000708Y-8876272D01*
X10000708Y-8876272D02*
X10010232Y-8866748D01*
X10010232Y-8866748D02*
X10019756Y-8847701D01*
X10019756Y-8847701D02*
X10019756Y-8800082D01*
X10019756Y-8800082D02*
X10010232Y-8781034D01*
X10010232Y-8781034D02*
X10000708Y-8771510D01*
X10000708Y-8771510D02*
X9981661Y-8761986D01*
X9981661Y-8761986D02*
X9943565Y-8761986D01*
X9943565Y-8761986D02*
X9924518Y-8771510D01*
X9924518Y-8771510D02*
X9914994Y-8781034D01*
X9914994Y-8781034D02*
X9905470Y-8800082D01*
X10095946Y-8685796D02*
X10095946Y-8723891D01*
X10172137Y-8685796D02*
X10172137Y-8723891D01*
X10467375Y-8961986D02*
X10457851Y-8952463D01*
X10457851Y-8952463D02*
X10438804Y-8923891D01*
X10438804Y-8923891D02*
X10429280Y-8904844D01*
X10429280Y-8904844D02*
X10419756Y-8876272D01*
X10419756Y-8876272D02*
X10410232Y-8828653D01*
X10410232Y-8828653D02*
X10410232Y-8790558D01*
X10410232Y-8790558D02*
X10419756Y-8742939D01*
X10419756Y-8742939D02*
X10429280Y-8714367D01*
X10429280Y-8714367D02*
X10438804Y-8695320D01*
X10438804Y-8695320D02*
X10457851Y-8666748D01*
X10457851Y-8666748D02*
X10467375Y-8657224D01*
X10648327Y-8885796D02*
X10534042Y-8885796D01*
X10591184Y-8885796D02*
X10591184Y-8685796D01*
X10591184Y-8685796D02*
X10572137Y-8714367D01*
X10572137Y-8714367D02*
X10553089Y-8733415D01*
X10553089Y-8733415D02*
X10534042Y-8742939D01*
X10772137Y-8685796D02*
X10791185Y-8685796D01*
X10791185Y-8685796D02*
X10810232Y-8695320D01*
X10810232Y-8695320D02*
X10819756Y-8704844D01*
X10819756Y-8704844D02*
X10829280Y-8723891D01*
X10829280Y-8723891D02*
X10838804Y-8761986D01*
X10838804Y-8761986D02*
X10838804Y-8809605D01*
X10838804Y-8809605D02*
X10829280Y-8847701D01*
X10829280Y-8847701D02*
X10819756Y-8866748D01*
X10819756Y-8866748D02*
X10810232Y-8876272D01*
X10810232Y-8876272D02*
X10791185Y-8885796D01*
X10791185Y-8885796D02*
X10772137Y-8885796D01*
X10772137Y-8885796D02*
X10753089Y-8876272D01*
X10753089Y-8876272D02*
X10743565Y-8866748D01*
X10743565Y-8866748D02*
X10734042Y-8847701D01*
X10734042Y-8847701D02*
X10724518Y-8809605D01*
X10724518Y-8809605D02*
X10724518Y-8761986D01*
X10724518Y-8761986D02*
X10734042Y-8723891D01*
X10734042Y-8723891D02*
X10743565Y-8704844D01*
X10743565Y-8704844D02*
X10753089Y-8695320D01*
X10753089Y-8695320D02*
X10772137Y-8685796D01*
X11076899Y-8885796D02*
X11076899Y-8685796D01*
X11162613Y-8885796D02*
X11162613Y-8781034D01*
X11162613Y-8781034D02*
X11153089Y-8761986D01*
X11153089Y-8761986D02*
X11134042Y-8752463D01*
X11134042Y-8752463D02*
X11105470Y-8752463D01*
X11105470Y-8752463D02*
X11086423Y-8761986D01*
X11086423Y-8761986D02*
X11076899Y-8771510D01*
X11286423Y-8885796D02*
X11267375Y-8876272D01*
X11267375Y-8876272D02*
X11257851Y-8866748D01*
X11257851Y-8866748D02*
X11248327Y-8847701D01*
X11248327Y-8847701D02*
X11248327Y-8790558D01*
X11248327Y-8790558D02*
X11257851Y-8771510D01*
X11257851Y-8771510D02*
X11267375Y-8761986D01*
X11267375Y-8761986D02*
X11286423Y-8752463D01*
X11286423Y-8752463D02*
X11314994Y-8752463D01*
X11314994Y-8752463D02*
X11334042Y-8761986D01*
X11334042Y-8761986D02*
X11343565Y-8771510D01*
X11343565Y-8771510D02*
X11353089Y-8790558D01*
X11353089Y-8790558D02*
X11353089Y-8847701D01*
X11353089Y-8847701D02*
X11343565Y-8866748D01*
X11343565Y-8866748D02*
X11334042Y-8876272D01*
X11334042Y-8876272D02*
X11314994Y-8885796D01*
X11314994Y-8885796D02*
X11286423Y-8885796D01*
X11467375Y-8885796D02*
X11448327Y-8876272D01*
X11448327Y-8876272D02*
X11438804Y-8857224D01*
X11438804Y-8857224D02*
X11438804Y-8685796D01*
X11619756Y-8876272D02*
X11600708Y-8885796D01*
X11600708Y-8885796D02*
X11562613Y-8885796D01*
X11562613Y-8885796D02*
X11543565Y-8876272D01*
X11543565Y-8876272D02*
X11534042Y-8857224D01*
X11534042Y-8857224D02*
X11534042Y-8781034D01*
X11534042Y-8781034D02*
X11543565Y-8761986D01*
X11543565Y-8761986D02*
X11562613Y-8752463D01*
X11562613Y-8752463D02*
X11600708Y-8752463D01*
X11600708Y-8752463D02*
X11619756Y-8761986D01*
X11619756Y-8761986D02*
X11629280Y-8781034D01*
X11629280Y-8781034D02*
X11629280Y-8800082D01*
X11629280Y-8800082D02*
X11534042Y-8819129D01*
X11705470Y-8876272D02*
X11724518Y-8885796D01*
X11724518Y-8885796D02*
X11762613Y-8885796D01*
X11762613Y-8885796D02*
X11781661Y-8876272D01*
X11781661Y-8876272D02*
X11791185Y-8857224D01*
X11791185Y-8857224D02*
X11791185Y-8847701D01*
X11791185Y-8847701D02*
X11781661Y-8828653D01*
X11781661Y-8828653D02*
X11762613Y-8819129D01*
X11762613Y-8819129D02*
X11734042Y-8819129D01*
X11734042Y-8819129D02*
X11714994Y-8809605D01*
X11714994Y-8809605D02*
X11705470Y-8790558D01*
X11705470Y-8790558D02*
X11705470Y-8781034D01*
X11705470Y-8781034D02*
X11714994Y-8761986D01*
X11714994Y-8761986D02*
X11734042Y-8752463D01*
X11734042Y-8752463D02*
X11762613Y-8752463D01*
X11762613Y-8752463D02*
X11781661Y-8761986D01*
X11857851Y-8961986D02*
X11867375Y-8952463D01*
X11867375Y-8952463D02*
X11886423Y-8923891D01*
X11886423Y-8923891D02*
X11895946Y-8904844D01*
X11895946Y-8904844D02*
X11905470Y-8876272D01*
X11905470Y-8876272D02*
X11914994Y-8828653D01*
X11914994Y-8828653D02*
X11914994Y-8790558D01*
X11914994Y-8790558D02*
X11905470Y-8742939D01*
X11905470Y-8742939D02*
X11895946Y-8714367D01*
X11895946Y-8714367D02*
X11886423Y-8695320D01*
X11886423Y-8695320D02*
X11867375Y-8666748D01*
X11867375Y-8666748D02*
X11857851Y-8657224D01*
D13*
X6892312Y-9058312D02*
G75*
G03*
X6892312Y-9058312I-40000J0D01*
G01*
D11*
X7191184Y-8949796D02*
X7210232Y-8949796D01*
X7210232Y-8949796D02*
X7229279Y-8959320D01*
X7229279Y-8959320D02*
X7238803Y-8968844D01*
X7238803Y-8968844D02*
X7248327Y-8987891D01*
X7248327Y-8987891D02*
X7257851Y-9025986D01*
X7257851Y-9025986D02*
X7257851Y-9073605D01*
X7257851Y-9073605D02*
X7248327Y-9111701D01*
X7248327Y-9111701D02*
X7238803Y-9130748D01*
X7238803Y-9130748D02*
X7229279Y-9140272D01*
X7229279Y-9140272D02*
X7210232Y-9149796D01*
X7210232Y-9149796D02*
X7191184Y-9149796D01*
X7191184Y-9149796D02*
X7172136Y-9140272D01*
X7172136Y-9140272D02*
X7162613Y-9130748D01*
X7162613Y-9130748D02*
X7153089Y-9111701D01*
X7153089Y-9111701D02*
X7143565Y-9073605D01*
X7143565Y-9073605D02*
X7143565Y-9025986D01*
X7143565Y-9025986D02*
X7153089Y-8987891D01*
X7153089Y-8987891D02*
X7162613Y-8968844D01*
X7162613Y-8968844D02*
X7172136Y-8959320D01*
X7172136Y-8959320D02*
X7191184Y-8949796D01*
X7343565Y-9130748D02*
X7353089Y-9140272D01*
X7353089Y-9140272D02*
X7343565Y-9149796D01*
X7343565Y-9149796D02*
X7334041Y-9140272D01*
X7334041Y-9140272D02*
X7343565Y-9130748D01*
X7343565Y-9130748D02*
X7343565Y-9149796D01*
X7467375Y-9035510D02*
X7448327Y-9025986D01*
X7448327Y-9025986D02*
X7438803Y-9016463D01*
X7438803Y-9016463D02*
X7429279Y-8997415D01*
X7429279Y-8997415D02*
X7429279Y-8987891D01*
X7429279Y-8987891D02*
X7438803Y-8968844D01*
X7438803Y-8968844D02*
X7448327Y-8959320D01*
X7448327Y-8959320D02*
X7467375Y-8949796D01*
X7467375Y-8949796D02*
X7505470Y-8949796D01*
X7505470Y-8949796D02*
X7524517Y-8959320D01*
X7524517Y-8959320D02*
X7534041Y-8968844D01*
X7534041Y-8968844D02*
X7543565Y-8987891D01*
X7543565Y-8987891D02*
X7543565Y-8997415D01*
X7543565Y-8997415D02*
X7534041Y-9016463D01*
X7534041Y-9016463D02*
X7524517Y-9025986D01*
X7524517Y-9025986D02*
X7505470Y-9035510D01*
X7505470Y-9035510D02*
X7467375Y-9035510D01*
X7467375Y-9035510D02*
X7448327Y-9045034D01*
X7448327Y-9045034D02*
X7438803Y-9054558D01*
X7438803Y-9054558D02*
X7429279Y-9073605D01*
X7429279Y-9073605D02*
X7429279Y-9111701D01*
X7429279Y-9111701D02*
X7438803Y-9130748D01*
X7438803Y-9130748D02*
X7448327Y-9140272D01*
X7448327Y-9140272D02*
X7467375Y-9149796D01*
X7467375Y-9149796D02*
X7505470Y-9149796D01*
X7505470Y-9149796D02*
X7524517Y-9140272D01*
X7524517Y-9140272D02*
X7534041Y-9130748D01*
X7534041Y-9130748D02*
X7543565Y-9111701D01*
X7543565Y-9111701D02*
X7543565Y-9073605D01*
X7543565Y-9073605D02*
X7534041Y-9054558D01*
X7534041Y-9054558D02*
X7524517Y-9045034D01*
X7524517Y-9045034D02*
X7505470Y-9035510D01*
X7667375Y-8949796D02*
X7686422Y-8949796D01*
X7686422Y-8949796D02*
X7705470Y-8959320D01*
X7705470Y-8959320D02*
X7714994Y-8968844D01*
X7714994Y-8968844D02*
X7724517Y-8987891D01*
X7724517Y-8987891D02*
X7734041Y-9025986D01*
X7734041Y-9025986D02*
X7734041Y-9073605D01*
X7734041Y-9073605D02*
X7724517Y-9111701D01*
X7724517Y-9111701D02*
X7714994Y-9130748D01*
X7714994Y-9130748D02*
X7705470Y-9140272D01*
X7705470Y-9140272D02*
X7686422Y-9149796D01*
X7686422Y-9149796D02*
X7667375Y-9149796D01*
X7667375Y-9149796D02*
X7648327Y-9140272D01*
X7648327Y-9140272D02*
X7638803Y-9130748D01*
X7638803Y-9130748D02*
X7629279Y-9111701D01*
X7629279Y-9111701D02*
X7619756Y-9073605D01*
X7619756Y-9073605D02*
X7619756Y-9025986D01*
X7619756Y-9025986D02*
X7629279Y-8987891D01*
X7629279Y-8987891D02*
X7638803Y-8968844D01*
X7638803Y-8968844D02*
X7648327Y-8959320D01*
X7648327Y-8959320D02*
X7667375Y-8949796D01*
X7857851Y-8949796D02*
X7876898Y-8949796D01*
X7876898Y-8949796D02*
X7895946Y-8959320D01*
X7895946Y-8959320D02*
X7905470Y-8968844D01*
X7905470Y-8968844D02*
X7914994Y-8987891D01*
X7914994Y-8987891D02*
X7924517Y-9025986D01*
X7924517Y-9025986D02*
X7924517Y-9073605D01*
X7924517Y-9073605D02*
X7914994Y-9111701D01*
X7914994Y-9111701D02*
X7905470Y-9130748D01*
X7905470Y-9130748D02*
X7895946Y-9140272D01*
X7895946Y-9140272D02*
X7876898Y-9149796D01*
X7876898Y-9149796D02*
X7857851Y-9149796D01*
X7857851Y-9149796D02*
X7838803Y-9140272D01*
X7838803Y-9140272D02*
X7829279Y-9130748D01*
X7829279Y-9130748D02*
X7819756Y-9111701D01*
X7819756Y-9111701D02*
X7810232Y-9073605D01*
X7810232Y-9073605D02*
X7810232Y-9025986D01*
X7810232Y-9025986D02*
X7819756Y-8987891D01*
X7819756Y-8987891D02*
X7829279Y-8968844D01*
X7829279Y-8968844D02*
X7838803Y-8959320D01*
X7838803Y-8959320D02*
X7857851Y-8949796D01*
X8010232Y-9149796D02*
X8010232Y-9016463D01*
X8010232Y-9035510D02*
X8019756Y-9025986D01*
X8019756Y-9025986D02*
X8038803Y-9016463D01*
X8038803Y-9016463D02*
X8067375Y-9016463D01*
X8067375Y-9016463D02*
X8086422Y-9025986D01*
X8086422Y-9025986D02*
X8095946Y-9045034D01*
X8095946Y-9045034D02*
X8095946Y-9149796D01*
X8095946Y-9045034D02*
X8105470Y-9025986D01*
X8105470Y-9025986D02*
X8124517Y-9016463D01*
X8124517Y-9016463D02*
X8153089Y-9016463D01*
X8153089Y-9016463D02*
X8172137Y-9025986D01*
X8172137Y-9025986D02*
X8181660Y-9045034D01*
X8181660Y-9045034D02*
X8181660Y-9149796D01*
X8276898Y-9149796D02*
X8276898Y-9016463D01*
X8276898Y-9035510D02*
X8286422Y-9025986D01*
X8286422Y-9025986D02*
X8305470Y-9016463D01*
X8305470Y-9016463D02*
X8334041Y-9016463D01*
X8334041Y-9016463D02*
X8353089Y-9025986D01*
X8353089Y-9025986D02*
X8362613Y-9045034D01*
X8362613Y-9045034D02*
X8362613Y-9149796D01*
X8362613Y-9045034D02*
X8372137Y-9025986D01*
X8372137Y-9025986D02*
X8391184Y-9016463D01*
X8391184Y-9016463D02*
X8419756Y-9016463D01*
X8419756Y-9016463D02*
X8438803Y-9025986D01*
X8438803Y-9025986D02*
X8448327Y-9045034D01*
X8448327Y-9045034D02*
X8448327Y-9149796D01*
X8838803Y-8940272D02*
X8667375Y-9197415D01*
X9095946Y-8949796D02*
X9114994Y-8949796D01*
X9114994Y-8949796D02*
X9134042Y-8959320D01*
X9134042Y-8959320D02*
X9143565Y-8968844D01*
X9143565Y-8968844D02*
X9153089Y-8987891D01*
X9153089Y-8987891D02*
X9162613Y-9025986D01*
X9162613Y-9025986D02*
X9162613Y-9073605D01*
X9162613Y-9073605D02*
X9153089Y-9111701D01*
X9153089Y-9111701D02*
X9143565Y-9130748D01*
X9143565Y-9130748D02*
X9134042Y-9140272D01*
X9134042Y-9140272D02*
X9114994Y-9149796D01*
X9114994Y-9149796D02*
X9095946Y-9149796D01*
X9095946Y-9149796D02*
X9076899Y-9140272D01*
X9076899Y-9140272D02*
X9067375Y-9130748D01*
X9067375Y-9130748D02*
X9057851Y-9111701D01*
X9057851Y-9111701D02*
X9048327Y-9073605D01*
X9048327Y-9073605D02*
X9048327Y-9025986D01*
X9048327Y-9025986D02*
X9057851Y-8987891D01*
X9057851Y-8987891D02*
X9067375Y-8968844D01*
X9067375Y-8968844D02*
X9076899Y-8959320D01*
X9076899Y-8959320D02*
X9095946Y-8949796D01*
X9248327Y-9130748D02*
X9257851Y-9140272D01*
X9257851Y-9140272D02*
X9248327Y-9149796D01*
X9248327Y-9149796D02*
X9238803Y-9140272D01*
X9238803Y-9140272D02*
X9248327Y-9130748D01*
X9248327Y-9130748D02*
X9248327Y-9149796D01*
X9381661Y-8949796D02*
X9400708Y-8949796D01*
X9400708Y-8949796D02*
X9419756Y-8959320D01*
X9419756Y-8959320D02*
X9429280Y-8968844D01*
X9429280Y-8968844D02*
X9438803Y-8987891D01*
X9438803Y-8987891D02*
X9448327Y-9025986D01*
X9448327Y-9025986D02*
X9448327Y-9073605D01*
X9448327Y-9073605D02*
X9438803Y-9111701D01*
X9438803Y-9111701D02*
X9429280Y-9130748D01*
X9429280Y-9130748D02*
X9419756Y-9140272D01*
X9419756Y-9140272D02*
X9400708Y-9149796D01*
X9400708Y-9149796D02*
X9381661Y-9149796D01*
X9381661Y-9149796D02*
X9362613Y-9140272D01*
X9362613Y-9140272D02*
X9353089Y-9130748D01*
X9353089Y-9130748D02*
X9343565Y-9111701D01*
X9343565Y-9111701D02*
X9334042Y-9073605D01*
X9334042Y-9073605D02*
X9334042Y-9025986D01*
X9334042Y-9025986D02*
X9343565Y-8987891D01*
X9343565Y-8987891D02*
X9353089Y-8968844D01*
X9353089Y-8968844D02*
X9362613Y-8959320D01*
X9362613Y-8959320D02*
X9381661Y-8949796D01*
X9514994Y-8949796D02*
X9638803Y-8949796D01*
X9638803Y-8949796D02*
X9572137Y-9025986D01*
X9572137Y-9025986D02*
X9600708Y-9025986D01*
X9600708Y-9025986D02*
X9619756Y-9035510D01*
X9619756Y-9035510D02*
X9629280Y-9045034D01*
X9629280Y-9045034D02*
X9638803Y-9064082D01*
X9638803Y-9064082D02*
X9638803Y-9111701D01*
X9638803Y-9111701D02*
X9629280Y-9130748D01*
X9629280Y-9130748D02*
X9619756Y-9140272D01*
X9619756Y-9140272D02*
X9600708Y-9149796D01*
X9600708Y-9149796D02*
X9543565Y-9149796D01*
X9543565Y-9149796D02*
X9524518Y-9140272D01*
X9524518Y-9140272D02*
X9514994Y-9130748D01*
X9829280Y-9149796D02*
X9714994Y-9149796D01*
X9772137Y-9149796D02*
X9772137Y-8949796D01*
X9772137Y-8949796D02*
X9753089Y-8978367D01*
X9753089Y-8978367D02*
X9734042Y-8997415D01*
X9734042Y-8997415D02*
X9714994Y-9006939D01*
X10010232Y-8949796D02*
X9914994Y-8949796D01*
X9914994Y-8949796D02*
X9905470Y-9045034D01*
X9905470Y-9045034D02*
X9914994Y-9035510D01*
X9914994Y-9035510D02*
X9934042Y-9025986D01*
X9934042Y-9025986D02*
X9981661Y-9025986D01*
X9981661Y-9025986D02*
X10000708Y-9035510D01*
X10000708Y-9035510D02*
X10010232Y-9045034D01*
X10010232Y-9045034D02*
X10019756Y-9064082D01*
X10019756Y-9064082D02*
X10019756Y-9111701D01*
X10019756Y-9111701D02*
X10010232Y-9130748D01*
X10010232Y-9130748D02*
X10000708Y-9140272D01*
X10000708Y-9140272D02*
X9981661Y-9149796D01*
X9981661Y-9149796D02*
X9934042Y-9149796D01*
X9934042Y-9149796D02*
X9914994Y-9140272D01*
X9914994Y-9140272D02*
X9905470Y-9130748D01*
X10095946Y-8949796D02*
X10095946Y-8987891D01*
X10172137Y-8949796D02*
X10172137Y-8987891D01*
X10467375Y-9225986D02*
X10457851Y-9216463D01*
X10457851Y-9216463D02*
X10438804Y-9187891D01*
X10438804Y-9187891D02*
X10429280Y-9168844D01*
X10429280Y-9168844D02*
X10419756Y-9140272D01*
X10419756Y-9140272D02*
X10410232Y-9092653D01*
X10410232Y-9092653D02*
X10410232Y-9054558D01*
X10410232Y-9054558D02*
X10419756Y-9006939D01*
X10419756Y-9006939D02*
X10429280Y-8978367D01*
X10429280Y-8978367D02*
X10438804Y-8959320D01*
X10438804Y-8959320D02*
X10457851Y-8930748D01*
X10457851Y-8930748D02*
X10467375Y-8921224D01*
X10648327Y-9149796D02*
X10534042Y-9149796D01*
X10591184Y-9149796D02*
X10591184Y-8949796D01*
X10591184Y-8949796D02*
X10572137Y-8978367D01*
X10572137Y-8978367D02*
X10553089Y-8997415D01*
X10553089Y-8997415D02*
X10534042Y-9006939D01*
X10772137Y-8949796D02*
X10791185Y-8949796D01*
X10791185Y-8949796D02*
X10810232Y-8959320D01*
X10810232Y-8959320D02*
X10819756Y-8968844D01*
X10819756Y-8968844D02*
X10829280Y-8987891D01*
X10829280Y-8987891D02*
X10838804Y-9025986D01*
X10838804Y-9025986D02*
X10838804Y-9073605D01*
X10838804Y-9073605D02*
X10829280Y-9111701D01*
X10829280Y-9111701D02*
X10819756Y-9130748D01*
X10819756Y-9130748D02*
X10810232Y-9140272D01*
X10810232Y-9140272D02*
X10791185Y-9149796D01*
X10791185Y-9149796D02*
X10772137Y-9149796D01*
X10772137Y-9149796D02*
X10753089Y-9140272D01*
X10753089Y-9140272D02*
X10743565Y-9130748D01*
X10743565Y-9130748D02*
X10734042Y-9111701D01*
X10734042Y-9111701D02*
X10724518Y-9073605D01*
X10724518Y-9073605D02*
X10724518Y-9025986D01*
X10724518Y-9025986D02*
X10734042Y-8987891D01*
X10734042Y-8987891D02*
X10743565Y-8968844D01*
X10743565Y-8968844D02*
X10753089Y-8959320D01*
X10753089Y-8959320D02*
X10772137Y-8949796D01*
X11076899Y-9149796D02*
X11076899Y-8949796D01*
X11162613Y-9149796D02*
X11162613Y-9045034D01*
X11162613Y-9045034D02*
X11153089Y-9025986D01*
X11153089Y-9025986D02*
X11134042Y-9016463D01*
X11134042Y-9016463D02*
X11105470Y-9016463D01*
X11105470Y-9016463D02*
X11086423Y-9025986D01*
X11086423Y-9025986D02*
X11076899Y-9035510D01*
X11286423Y-9149796D02*
X11267375Y-9140272D01*
X11267375Y-9140272D02*
X11257851Y-9130748D01*
X11257851Y-9130748D02*
X11248327Y-9111701D01*
X11248327Y-9111701D02*
X11248327Y-9054558D01*
X11248327Y-9054558D02*
X11257851Y-9035510D01*
X11257851Y-9035510D02*
X11267375Y-9025986D01*
X11267375Y-9025986D02*
X11286423Y-9016463D01*
X11286423Y-9016463D02*
X11314994Y-9016463D01*
X11314994Y-9016463D02*
X11334042Y-9025986D01*
X11334042Y-9025986D02*
X11343565Y-9035510D01*
X11343565Y-9035510D02*
X11353089Y-9054558D01*
X11353089Y-9054558D02*
X11353089Y-9111701D01*
X11353089Y-9111701D02*
X11343565Y-9130748D01*
X11343565Y-9130748D02*
X11334042Y-9140272D01*
X11334042Y-9140272D02*
X11314994Y-9149796D01*
X11314994Y-9149796D02*
X11286423Y-9149796D01*
X11467375Y-9149796D02*
X11448327Y-9140272D01*
X11448327Y-9140272D02*
X11438804Y-9121224D01*
X11438804Y-9121224D02*
X11438804Y-8949796D01*
X11619756Y-9140272D02*
X11600708Y-9149796D01*
X11600708Y-9149796D02*
X11562613Y-9149796D01*
X11562613Y-9149796D02*
X11543565Y-9140272D01*
X11543565Y-9140272D02*
X11534042Y-9121224D01*
X11534042Y-9121224D02*
X11534042Y-9045034D01*
X11534042Y-9045034D02*
X11543565Y-9025986D01*
X11543565Y-9025986D02*
X11562613Y-9016463D01*
X11562613Y-9016463D02*
X11600708Y-9016463D01*
X11600708Y-9016463D02*
X11619756Y-9025986D01*
X11619756Y-9025986D02*
X11629280Y-9045034D01*
X11629280Y-9045034D02*
X11629280Y-9064082D01*
X11629280Y-9064082D02*
X11534042Y-9083129D01*
X11705470Y-9140272D02*
X11724518Y-9149796D01*
X11724518Y-9149796D02*
X11762613Y-9149796D01*
X11762613Y-9149796D02*
X11781661Y-9140272D01*
X11781661Y-9140272D02*
X11791185Y-9121224D01*
X11791185Y-9121224D02*
X11791185Y-9111701D01*
X11791185Y-9111701D02*
X11781661Y-9092653D01*
X11781661Y-9092653D02*
X11762613Y-9083129D01*
X11762613Y-9083129D02*
X11734042Y-9083129D01*
X11734042Y-9083129D02*
X11714994Y-9073605D01*
X11714994Y-9073605D02*
X11705470Y-9054558D01*
X11705470Y-9054558D02*
X11705470Y-9045034D01*
X11705470Y-9045034D02*
X11714994Y-9025986D01*
X11714994Y-9025986D02*
X11734042Y-9016463D01*
X11734042Y-9016463D02*
X11762613Y-9016463D01*
X11762613Y-9016463D02*
X11781661Y-9025986D01*
X11857851Y-9225986D02*
X11867375Y-9216463D01*
X11867375Y-9216463D02*
X11886423Y-9187891D01*
X11886423Y-9187891D02*
X11895946Y-9168844D01*
X11895946Y-9168844D02*
X11905470Y-9140272D01*
X11905470Y-9140272D02*
X11914994Y-9092653D01*
X11914994Y-9092653D02*
X11914994Y-9054558D01*
X11914994Y-9054558D02*
X11905470Y-9006939D01*
X11905470Y-9006939D02*
X11895946Y-8978367D01*
X11895946Y-8978367D02*
X11886423Y-8959320D01*
X11886423Y-8959320D02*
X11867375Y-8930748D01*
X11867375Y-8930748D02*
X11857851Y-8921224D01*
M02*
