%TF.GenerationSoftware,KiCad,Pcbnew,7.0.6*%
%TF.CreationDate,2025-02-23T16:11:35-08:00*%
%TF.ProjectId,jtag_adapter,6a746167-5f61-4646-9170-7465722e6b69,rev?*%
%TF.SameCoordinates,Original*%
%TF.FileFunction,Copper,L1,Top*%
%TF.FilePolarity,Positive*%
%FSLAX46Y46*%
G04 Gerber Fmt 4.6, Leading zero omitted, Abs format (unit mm)*
G04 Created by KiCad (PCBNEW 7.0.6) date 2025-02-23 16:11:35*
%MOMM*%
%LPD*%
G01*
G04 APERTURE LIST*
%TA.AperFunction,ComponentPad*%
%ADD10R,1.350000X1.350000*%
%TD*%
%TA.AperFunction,ComponentPad*%
%ADD11O,1.350000X1.350000*%
%TD*%
%TA.AperFunction,ComponentPad*%
%ADD12R,1.000000X1.000000*%
%TD*%
%TA.AperFunction,ComponentPad*%
%ADD13O,1.000000X1.000000*%
%TD*%
%TA.AperFunction,Conductor*%
%ADD14C,0.250000*%
%TD*%
G04 APERTURE END LIST*
D10*
%TO.P,J2,1,VTref*%
%TO.N,+3.3V*%
X73120000Y-71470000D03*
D11*
%TO.P,J2,2,SWDIO/TMS*%
%TO.N,Net-(J1-SWDIO{slash}TMS)*%
X71120000Y-71470000D03*
%TO.P,J2,3,GND*%
%TO.N,GND*%
X73120000Y-73470000D03*
%TO.P,J2,4,SWDCLK/TCK*%
%TO.N,Net-(J1-SWDCLK{slash}TCK)*%
X71120000Y-73470000D03*
%TO.P,J2,5,GND*%
%TO.N,GND*%
X73120000Y-75470000D03*
%TO.P,J2,6,SWO/TDO*%
%TO.N,Net-(J1-SWO{slash}TDO)*%
X71120000Y-75470000D03*
%TO.P,J2,7,KEY*%
%TO.N,unconnected-(J2-KEY-Pad7)*%
X73120000Y-77470000D03*
%TO.P,J2,8,NC/TDI*%
%TO.N,Net-(J1-NC{slash}TDI)*%
X71120000Y-77470000D03*
%TO.P,J2,9,GNDDetect*%
%TO.N,GND*%
X73120000Y-79470000D03*
%TO.P,J2,10,~{RESET}*%
%TO.N,Net-(J1-~{RESET})*%
X71120000Y-79470000D03*
%TD*%
D12*
%TO.P,J1,1,VTref*%
%TO.N,+3.3V*%
X80645000Y-72848804D03*
D13*
%TO.P,J1,2,SWDIO/TMS*%
%TO.N,Net-(J1-SWDIO{slash}TMS)*%
X79375000Y-72848804D03*
%TO.P,J1,3,GND*%
%TO.N,GND*%
X80645000Y-74118804D03*
%TO.P,J1,4,SWDCLK/TCK*%
%TO.N,Net-(J1-SWDCLK{slash}TCK)*%
X79375000Y-74118804D03*
%TO.P,J1,5,GND*%
%TO.N,GND*%
X80645000Y-75388804D03*
%TO.P,J1,6,SWO/TDO*%
%TO.N,Net-(J1-SWO{slash}TDO)*%
X79375000Y-75388804D03*
%TO.P,J1,7,KEY*%
%TO.N,unconnected-(J1-KEY-Pad7)*%
X80645000Y-76658804D03*
%TO.P,J1,8,NC/TDI*%
%TO.N,Net-(J1-NC{slash}TDI)*%
X79375000Y-76658804D03*
%TO.P,J1,9,GNDDetect*%
%TO.N,GND*%
X80645000Y-77928804D03*
%TO.P,J1,10,~{RESET}*%
%TO.N,Net-(J1-~{RESET})*%
X79375000Y-77928804D03*
%TD*%
D14*
%TO.N,Net-(J1-~{RESET})*%
X78833804Y-78470000D02*
X72120000Y-78470000D01*
X72120000Y-78470000D02*
X71120000Y-79470000D01*
X79375000Y-77928804D02*
X78833804Y-78470000D01*
%TO.N,Net-(J1-NC{slash}TDI)*%
X72120000Y-76470000D02*
X71120000Y-77470000D01*
X79375000Y-76658804D02*
X79186196Y-76470000D01*
X79186196Y-76470000D02*
X72120000Y-76470000D01*
%TO.N,Net-(J1-SWO{slash}TDO)*%
X78213804Y-75388804D02*
X77295000Y-74470000D01*
X79375000Y-75388804D02*
X78213804Y-75388804D01*
X72120000Y-74470000D02*
X71120000Y-75470000D01*
X77295000Y-74470000D02*
X72120000Y-74470000D01*
%TO.N,Net-(J1-SWDCLK{slash}TCK)*%
X76915000Y-72470000D02*
X72120000Y-72470000D01*
X72120000Y-72470000D02*
X71120000Y-73470000D01*
X78563804Y-74118804D02*
X76915000Y-72470000D01*
X79375000Y-74118804D02*
X78563804Y-74118804D01*
%TO.N,Net-(J1-SWDIO{slash}TMS)*%
X71120000Y-70485000D02*
X71120000Y-71470000D01*
X71755000Y-69850000D02*
X71120000Y-70485000D01*
X75565000Y-69850000D02*
X71755000Y-69850000D01*
X78563804Y-72848804D02*
X75565000Y-69850000D01*
X79375000Y-72848804D02*
X78563804Y-72848804D01*
%TD*%
%TA.AperFunction,Conductor*%
%TO.N,+3.3V*%
G36*
X71088280Y-69419491D02*
G01*
X71134035Y-69472295D01*
X71143979Y-69541453D01*
X71114954Y-69605009D01*
X71108922Y-69611487D01*
X70736208Y-69984199D01*
X70723951Y-69994020D01*
X70724134Y-69994241D01*
X70718123Y-69999213D01*
X70670772Y-70049636D01*
X70649889Y-70070519D01*
X70649877Y-70070532D01*
X70645621Y-70076017D01*
X70641837Y-70080447D01*
X70609937Y-70114418D01*
X70609936Y-70114420D01*
X70600284Y-70131976D01*
X70589610Y-70148226D01*
X70577329Y-70164061D01*
X70577324Y-70164068D01*
X70558815Y-70206838D01*
X70556245Y-70212084D01*
X70533803Y-70252906D01*
X70528822Y-70272307D01*
X70522521Y-70290710D01*
X70514562Y-70309102D01*
X70514561Y-70309105D01*
X70507271Y-70355127D01*
X70506087Y-70360846D01*
X70494501Y-70405972D01*
X70493523Y-70413718D01*
X70492177Y-70413548D01*
X70474815Y-70472676D01*
X70435779Y-70511063D01*
X70408568Y-70527911D01*
X70408567Y-70527912D01*
X70247574Y-70674675D01*
X70116288Y-70848527D01*
X70019184Y-71043537D01*
X69959564Y-71253081D01*
X69939464Y-71469999D01*
X69939464Y-71470000D01*
X69959564Y-71686918D01*
X69959564Y-71686920D01*
X69959565Y-71686923D01*
X70005624Y-71848804D01*
X70019184Y-71896462D01*
X70116288Y-72091472D01*
X70247574Y-72265324D01*
X70371572Y-72378363D01*
X70407854Y-72438074D01*
X70406093Y-72507922D01*
X70371572Y-72561637D01*
X70247574Y-72674675D01*
X70116288Y-72848527D01*
X70019184Y-73043537D01*
X69998799Y-73115185D01*
X69961168Y-73247445D01*
X69959564Y-73253081D01*
X69939464Y-73469999D01*
X69939464Y-73470000D01*
X69959564Y-73686918D01*
X69959564Y-73686920D01*
X69959565Y-73686923D01*
X70007436Y-73855171D01*
X70019184Y-73896462D01*
X70116288Y-74091472D01*
X70247574Y-74265324D01*
X70371572Y-74378363D01*
X70407854Y-74438074D01*
X70406093Y-74507922D01*
X70371572Y-74561637D01*
X70247574Y-74674675D01*
X70116288Y-74848527D01*
X70019184Y-75043537D01*
X70019182Y-75043541D01*
X70019183Y-75043541D01*
X69961168Y-75247445D01*
X69959564Y-75253081D01*
X69939464Y-75469999D01*
X69939464Y-75470000D01*
X69959564Y-75686918D01*
X69959564Y-75686920D01*
X69959565Y-75686923D01*
X70019183Y-75896459D01*
X70019184Y-75896462D01*
X70116288Y-76091472D01*
X70247574Y-76265324D01*
X70371572Y-76378363D01*
X70407854Y-76438074D01*
X70406093Y-76507922D01*
X70371572Y-76561637D01*
X70247574Y-76674675D01*
X70116288Y-76848527D01*
X70019184Y-77043537D01*
X70019182Y-77043541D01*
X70019183Y-77043541D01*
X69961168Y-77247445D01*
X69959564Y-77253081D01*
X69939464Y-77469999D01*
X69939464Y-77470000D01*
X69959564Y-77686918D01*
X69959564Y-77686920D01*
X69959565Y-77686923D01*
X70019183Y-77896459D01*
X70019184Y-77896462D01*
X70116288Y-78091472D01*
X70247574Y-78265324D01*
X70371572Y-78378363D01*
X70407854Y-78438074D01*
X70406093Y-78507922D01*
X70371572Y-78561637D01*
X70247574Y-78674675D01*
X70116288Y-78848527D01*
X70019184Y-79043537D01*
X70004777Y-79094172D01*
X69961168Y-79247445D01*
X69959564Y-79253081D01*
X69939464Y-79469999D01*
X69939464Y-79470000D01*
X69959564Y-79686918D01*
X69959564Y-79686920D01*
X69959565Y-79686923D01*
X70019183Y-79896459D01*
X70116288Y-80091472D01*
X70247573Y-80265322D01*
X70408568Y-80412088D01*
X70408575Y-80412092D01*
X70408576Y-80412093D01*
X70593786Y-80526770D01*
X70593792Y-80526773D01*
X70616664Y-80535633D01*
X70796931Y-80605470D01*
X71011074Y-80645500D01*
X71011076Y-80645500D01*
X71228924Y-80645500D01*
X71228926Y-80645500D01*
X71443069Y-80605470D01*
X71646210Y-80526772D01*
X71831432Y-80412088D01*
X71992427Y-80265322D01*
X72021047Y-80227422D01*
X72077153Y-80185787D01*
X72146865Y-80181094D01*
X72208048Y-80214836D01*
X72218946Y-80227414D01*
X72247573Y-80265322D01*
X72408568Y-80412088D01*
X72408575Y-80412092D01*
X72408576Y-80412093D01*
X72593786Y-80526770D01*
X72593792Y-80526773D01*
X72616664Y-80535633D01*
X72796931Y-80605470D01*
X73011074Y-80645500D01*
X73011076Y-80645500D01*
X73228924Y-80645500D01*
X73228926Y-80645500D01*
X73443069Y-80605470D01*
X73646210Y-80526772D01*
X73831432Y-80412088D01*
X73992427Y-80265322D01*
X74123712Y-80091472D01*
X74220817Y-79896459D01*
X74280435Y-79686923D01*
X74300536Y-79470000D01*
X74280435Y-79253077D01*
X74279382Y-79247445D01*
X74280587Y-79247219D01*
X74281125Y-79183561D01*
X74319395Y-79125104D01*
X74383194Y-79096617D01*
X74399803Y-79095500D01*
X78751061Y-79095500D01*
X78766681Y-79097224D01*
X78766708Y-79096939D01*
X78774464Y-79097671D01*
X78774471Y-79097673D01*
X78843618Y-79095500D01*
X78873154Y-79095500D01*
X78880032Y-79094630D01*
X78885845Y-79094172D01*
X78932431Y-79092709D01*
X78951673Y-79087117D01*
X78970716Y-79083174D01*
X78990596Y-79080664D01*
X79033926Y-79063507D01*
X79039450Y-79061617D01*
X79043200Y-79060527D01*
X79084194Y-79048618D01*
X79101433Y-79038422D01*
X79118907Y-79029862D01*
X79137531Y-79022488D01*
X79137531Y-79022487D01*
X79137536Y-79022486D01*
X79175253Y-78995082D01*
X79180109Y-78991892D01*
X79220224Y-78968170D01*
X79223596Y-78964796D01*
X79284914Y-78931306D01*
X79323435Y-78929066D01*
X79375000Y-78934145D01*
X79571132Y-78914828D01*
X79759727Y-78857618D01*
X79933538Y-78764714D01*
X79933544Y-78764708D01*
X79938607Y-78761327D01*
X79939703Y-78762968D01*
X79995639Y-78739209D01*
X80064507Y-78750998D01*
X80081148Y-78761692D01*
X80081393Y-78761327D01*
X80086458Y-78764711D01*
X80086462Y-78764714D01*
X80260273Y-78857618D01*
X80448868Y-78914828D01*
X80645000Y-78934145D01*
X80841132Y-78914828D01*
X81029727Y-78857618D01*
X81203538Y-78764714D01*
X81355883Y-78639687D01*
X81480910Y-78487342D01*
X81573814Y-78313531D01*
X81631024Y-78124936D01*
X81650341Y-77928804D01*
X81631024Y-77732672D01*
X81573814Y-77544077D01*
X81480910Y-77370266D01*
X81480907Y-77370262D01*
X81477523Y-77365197D01*
X81479164Y-77364100D01*
X81455405Y-77308165D01*
X81467194Y-77239297D01*
X81477888Y-77222655D01*
X81477523Y-77222411D01*
X81480904Y-77217348D01*
X81480910Y-77217342D01*
X81573814Y-77043531D01*
X81631024Y-76854936D01*
X81650341Y-76658804D01*
X81631024Y-76462672D01*
X81573814Y-76274077D01*
X81569135Y-76265324D01*
X81560986Y-76250079D01*
X81480910Y-76100266D01*
X81480907Y-76100262D01*
X81477523Y-76095197D01*
X81479164Y-76094100D01*
X81455405Y-76038165D01*
X81467194Y-75969297D01*
X81477888Y-75952655D01*
X81477523Y-75952411D01*
X81480904Y-75947348D01*
X81480910Y-75947342D01*
X81573814Y-75773531D01*
X81631024Y-75584936D01*
X81650341Y-75388804D01*
X81631024Y-75192672D01*
X81573814Y-75004077D01*
X81480910Y-74830266D01*
X81480907Y-74830262D01*
X81477523Y-74825197D01*
X81479164Y-74824100D01*
X81455405Y-74768165D01*
X81467194Y-74699297D01*
X81477888Y-74682655D01*
X81477523Y-74682411D01*
X81480904Y-74677348D01*
X81480910Y-74677342D01*
X81573814Y-74503531D01*
X81631024Y-74314936D01*
X81650341Y-74118804D01*
X81631024Y-73922672D01*
X81573814Y-73734077D01*
X81572419Y-73731467D01*
X81572100Y-73729939D01*
X81571482Y-73728445D01*
X81571765Y-73728327D01*
X81558174Y-73663065D01*
X81582512Y-73598694D01*
X81588351Y-73590893D01*
X81638597Y-73456180D01*
X81638598Y-73456176D01*
X81644999Y-73396648D01*
X81645000Y-73396631D01*
X81645000Y-73098804D01*
X80859483Y-73098804D01*
X80930801Y-73013811D01*
X80970000Y-72906110D01*
X80970000Y-72791498D01*
X80930801Y-72683797D01*
X80857129Y-72595999D01*
X80757871Y-72538692D01*
X80673436Y-72523804D01*
X80616564Y-72523804D01*
X80532129Y-72538692D01*
X80432871Y-72595999D01*
X80395000Y-72641131D01*
X80395000Y-71848804D01*
X80895000Y-71848804D01*
X80895000Y-72598804D01*
X81645000Y-72598804D01*
X81645000Y-72300976D01*
X81644999Y-72300959D01*
X81638598Y-72241431D01*
X81638596Y-72241424D01*
X81588354Y-72106717D01*
X81588350Y-72106710D01*
X81502190Y-71991616D01*
X81502187Y-71991613D01*
X81387093Y-71905453D01*
X81387086Y-71905449D01*
X81252379Y-71855207D01*
X81252372Y-71855205D01*
X81192844Y-71848804D01*
X80895000Y-71848804D01*
X80395000Y-71848804D01*
X80097155Y-71848804D01*
X80037627Y-71855205D01*
X80037620Y-71855207D01*
X79902913Y-71905449D01*
X79902907Y-71905452D01*
X79895102Y-71911296D01*
X79829638Y-71935712D01*
X79765470Y-71922053D01*
X79765359Y-71922322D01*
X79763905Y-71921720D01*
X79762341Y-71921387D01*
X79759731Y-71919992D01*
X79759730Y-71919991D01*
X79759727Y-71919990D01*
X79571132Y-71862780D01*
X79571129Y-71862779D01*
X79375000Y-71843463D01*
X79178870Y-71862779D01*
X78990266Y-71919992D01*
X78816465Y-72012891D01*
X78816463Y-72012892D01*
X78791300Y-72033542D01*
X78726989Y-72060853D01*
X78658122Y-72049059D01*
X78624958Y-72025367D01*
X76211078Y-69611487D01*
X76177593Y-69550164D01*
X76182577Y-69480472D01*
X76224449Y-69424539D01*
X76289913Y-69400122D01*
X76298759Y-69399806D01*
X83662724Y-69399806D01*
X83729763Y-69419491D01*
X83775518Y-69472295D01*
X83786724Y-69523806D01*
X83786724Y-81368621D01*
X83767039Y-81435660D01*
X83714235Y-81481415D01*
X83662724Y-81492621D01*
X69097621Y-81492621D01*
X69030582Y-81472936D01*
X68984827Y-81420132D01*
X68973621Y-81368621D01*
X68973621Y-69523806D01*
X68993306Y-69456767D01*
X69046110Y-69411012D01*
X69097621Y-69399806D01*
X71021241Y-69399806D01*
X71088280Y-69419491D01*
G37*
%TD.AperFunction*%
%TA.AperFunction,Conductor*%
G36*
X75321587Y-70495185D02*
G01*
X75342229Y-70511819D01*
X76463228Y-71632819D01*
X76496713Y-71694142D01*
X76491729Y-71763834D01*
X76449857Y-71819767D01*
X76384393Y-71844184D01*
X76375547Y-71844500D01*
X74419000Y-71844500D01*
X74351961Y-71824815D01*
X74306206Y-71772011D01*
X74295000Y-71720500D01*
X74295000Y-71720000D01*
X73435686Y-71720000D01*
X73447641Y-71708045D01*
X73505165Y-71595148D01*
X73524986Y-71470000D01*
X73505165Y-71344852D01*
X73447641Y-71231955D01*
X73435686Y-71220000D01*
X74295000Y-71220000D01*
X74295000Y-70747172D01*
X74294999Y-70747155D01*
X74288598Y-70687627D01*
X74288597Y-70687623D01*
X74271892Y-70642834D01*
X74266908Y-70573142D01*
X74300393Y-70511819D01*
X74361716Y-70478334D01*
X74388074Y-70475500D01*
X75254548Y-70475500D01*
X75321587Y-70495185D01*
G37*
%TD.AperFunction*%
%TD*%
M02*
